<?xml version="1.0" encoding="UTF-8"?>
<svg width="26px" height="25px" viewBox="0 0 26 25" version="1.1" xmlns="http://www.w3.org/2000/svg" xmlns:xlink="http://www.w3.org/1999/xlink">
    <!-- Generator: Sketch 63.1 (92452) - https://sketch.com -->
    <title>offline</title>
    <desc>Created with Sketch.</desc>
    <g id="Page-1" stroke="none" stroke-width="1" fill="none" fill-rule="evenodd">
        <g id="Grey-states" transform="translate(-28.000000, -87.000000)">
            <g id="offline" transform="translate(28.000000, 88.000000)">
                <g id="Group-2-Copy-2">
                    <g id="wifi" transform="translate(0.000000, 2.000000)" fill="#333333" fill-rule="nonzero">
                        <ellipse id="Oval" cx="13" cy="20.24" rx="1.73333333" ry="1.76"></ellipse>
                        <path d="M25.7273513,5.38407172 C22.3895049,1.91217155 17.8696251,0 12.9998123,0 C8.13040578,0 3.61052604,1.91217155 0.272628845,5.38407172 C-0.109753377,5.78185618 -0.0871557559,6.40492055 0.323156111,6.77567733 C0.733518759,7.14638488 1.37615449,7.12452642 1.75858749,6.72669273 C4.70795794,3.65882933 8.70017053,1.96927922 13.0001678,1.96922999 C17.2998096,1.96927922 21.2920222,3.65882933 24.2413926,6.72669273 C24.4414197,6.93474188 24.7126419,7.04 24.9845751,7.04 C25.2325395,7.04 25.4811134,6.95246495 25.676824,6.77567733 C26.0871359,6.40487132 26.1097843,5.78185618 25.7273513,5.38407172 Z" id="Path"></path>
                        <path d="M22.2309427,9.80372711 C19.6998213,7.45393569 16.4215588,6.159904 12.999984,6.16 C9.57762774,6.16 6.29931315,7.45412769 3.76897315,9.80382311 C3.36367699,10.180191 3.36622963,10.7880149 3.77470356,11.1614548 C4.1831775,11.5348947 4.8428517,11.5325427 5.24814786,11.1561748 C7.38428786,9.17252727 10.1372803,8.08004753 12.999984,8.07999953 C15.8619583,8.07990353 18.6149507,9.17243127 20.7518722,11.1562708 C20.9555621,11.3453427 21.2234327,11.44 21.4914074,11.44 C21.7566732,11.44 22.0221474,11.3471667 22.2254207,11.1613588 C22.6337904,10.7878709 22.6362909,10.180047 22.2309427,9.80372711 Z" id="Path"></path>
                        <path d="M17.9038005,13.8595221 C16.6027954,12.3670628 14.7379381,11.44 13.0368314,11.44 C13.0366314,11.44 13.0362814,11.44 13.0360814,11.44 L12.9640311,11.44 C12.9637311,11.44 12.9635811,11.44 12.9632811,11.44 C11.2621244,11.44 9.3971171,12.3671207 8.096162,13.8595221 C7.70386046,14.3095931 7.70091044,15.0427097 8.08961197,15.4970069 C8.28516274,15.725516 8.54256375,15.84 8.80001476,15.84 C9.05436576,15.84 9.30881676,15.728295 9.50376752,15.504649 C10.4299212,14.4421712 11.7877765,13.7557754 12.9633811,13.7557754 C12.9635311,13.7557754 12.9637311,13.7557754 12.9638811,13.7557754 L13.0362314,13.7557754 C13.0364314,13.7557754 13.0364814,13.7557754 13.0366814,13.7557754 C14.212136,13.7557754 15.5700913,14.4422291 16.496145,15.504649 C16.8884465,15.954662 17.521699,15.9514199 17.9103505,15.4970069 C18.2991021,15.0427676 18.296152,14.3095931 17.9038005,13.8595221 Z" id="Path"></path>
                    </g>
                    <line x1="4.43478261" y1="22.5576923" x2="23.5652174" y2="0.442307692" id="Line" stroke="#333333" stroke-width="1.5" stroke-linecap="round"></line>
                </g>
            </g>
        </g>
    </g>
</svg>