<?xml version="1.0" encoding="UTF-8"?>
<svg width="25px" height="21px" viewBox="0 0 25 21" version="1.1" xmlns="http://www.w3.org/2000/svg" xmlns:xlink="http://www.w3.org/1999/xlink">
    <!-- Generator: Sketch 63.1 (92452) - https://sketch.com -->
    <title>wifi copy</title>
    <desc>Created with Sketch.</desc>
    <g id="Page-1" stroke="none" stroke-width="1" fill="none" fill-rule="evenodd">
        <g id="Grey-states" transform="translate(-25.000000, -235.000000)" fill="#333333" fill-rule="nonzero">
            <g id="Group-2" transform="translate(7.000000, 221.000000)">
                <g id="wifi-copy" transform="translate(18.000000, 14.000000)">
                    <circle id="Oval" cx="12.5" cy="19.5" r="1.5"></circle>
                    <path d="M24.7378378,5.35348041 C21.5283701,1.90130694 17.1823318,0 12.4998195,0 C7.81769787,0 3.47165965,1.90130694 0.26214312,5.35348041 C-0.105532094,5.74900473 -0.0838036115,6.36852896 0.31072703,6.73717916 C0.705306499,7.10578042 1.32322547,7.08404616 1.69094951,6.68847289 C4.52688263,3.63804052 8.36554858,1.95809014 12.5001613,1.95804119 C16.6344323,1.95809014 20.4730983,3.63804052 23.3090314,6.68847289 C23.5013651,6.89533994 23.7621557,7 24.0236299,7 C24.2620572,7 24.5010706,6.91296231 24.6892539,6.73717916 C25.0837845,6.36848001 25.1055618,5.74900473 24.7378378,5.35348041 Z" id="Path"></path>
                    <path d="M21.7145263,9.45049916 C19.3250061,7.22531788 16.2301429,5.99990909 12.9999849,6 C9.76908913,6 6.67417675,7.2254997 4.28539424,9.45059007 C3.90277198,9.80699908 3.90518182,10.3825898 4.29080406,10.7362261 C4.67642631,11.0898624 5.29919566,11.0876351 5.68181791,10.7312261 C7.69845357,8.85277203 10.2974324,7.81822683 12.9999849,7.81818138 C15.7018488,7.81809047 18.3008276,8.85268113 20.318201,10.731317 C20.5104957,10.9103624 20.7633805,11 21.0163637,11 C21.2667894,11 21.5174119,10.9120897 21.7093132,10.7361352 C22.0948371,10.3824535 22.0971977,9.80686271 21.7145263,9.45049916 Z" id="Path"></path>
                    <path d="M17.7151928,13.1995656 C16.4642263,11.8427843 14.6710943,11 13.0354148,11 C13.0352225,11 13.034886,11 13.0346936,11 L12.9654145,11 C12.9651261,11 12.9649818,11 12.9646934,11 C11.3289658,11 9.53568952,11.842837 8.28477115,13.1995656 C7.90755813,13.608721 7.90472158,14.2751906 8.27847305,14.6881881 C8.46650263,14.8959237 8.7140036,15 8.96155265,15 C9.20612092,15 9.45078534,14.89845 9.638238,14.6951354 C10.5287703,13.7292466 11.8344005,13.1052504 12.9647895,13.1052504 C12.9649338,13.1052504 12.9651261,13.1052504 12.9652703,13.1052504 L13.0348379,13.1052504 C13.0350302,13.1052504 13.0350783,13.1052504 13.0352706,13.1052504 C14.1655154,13.1052504 15.4712417,13.7292992 16.3616779,14.6951354 C16.7388909,15.1042382 17.3477875,15.1012909 17.7214909,14.6881881 C18.0952904,14.2752432 18.0924539,13.608721 17.7151928,13.1995656 Z" id="Path"></path>
                </g>
            </g>
        </g>
    </g>
</svg>